<?xml version="1.0" encoding="UTF-8"?>
<svg xmlns="http://www.w3.org/2000/svg" xmlns:xlink="http://www.w3.org/1999/xlink" width="960pt" height="540pt" viewBox="0 0 960 540" version="1.1">
<g id="surface1">
<rect x="0" y="0" width="960" height="540" style="fill:rgb(100%,100%,100%);fill-opacity:1;stroke:none;"/>
<path style="fill:none;stroke-width:1.5;stroke-linecap:butt;stroke-linejoin:miter;stroke:rgb(26.699829%,44.699097%,76.899719%);stroke-opacity:1;stroke-miterlimit:10;" d="M 166.980469 197.941406 L 752.46875 370.621094 " transform="matrix(1,0,0,-1,0,540)"/>
<path style="fill:none;stroke-width:1.5;stroke-linecap:butt;stroke-linejoin:miter;stroke:rgb(43.899536%,67.799377%,27.799988%);stroke-opacity:1;stroke-miterlimit:10;" d="M 121.859375 370.621094 L 632.191406 115.058594 " transform="matrix(1,0,0,-1,0,540)"/>
<path style="fill:none;stroke-width:1.5;stroke-linecap:butt;stroke-linejoin:miter;stroke:rgb(100%,75.299072%,0%);stroke-opacity:1;stroke-miterlimit:10;" d="M 70.621094 321.058594 L 838.21875 218.800781 " transform="matrix(1,0,0,-1,0,540)"/>
<path style=" stroke:none;fill-rule:nonzero;fill:rgb(100%,98.799133%,0%);fill-opacity:0.50196;" d="M 114.429688 154.558594 L 122.929688 154.558594 L 128.859375 159.730469 L 131.558594 161.960938 L 134.460938 164.429688 L 137.460938 166.761719 L 145.460938 172.058594 L 147.789062 173.398438 L 149.121094 174.21875 L 150.480469 174.988281 L 151.878906 175.691406 L 155.820312 177.289062 L 156.320312 177.398438 L 156.820312 177.488281 L 157.328125 177.558594 L 158.628906 177.621094 L 160.921875 177.828125 L 161.910156 178.058594 L 162.890625 178.328125 L 163.859375 178.648438 L 166.671875 179.839844 L 170.609375 181.480469 L 171.988281 181.988281 L 173.328125 182.558594 L 174.660156 183.191406 L 177.75 184.949219 L 185.609375 190.640625 L 193.28125 195.640625 L 194.058594 196.019531 L 194.859375 196.359375 L 195.671875 196.671875 L 197.480469 197.210938 L 198.511719 197.511719 L 200.808594 198.351562 L 201.621094 198.71875 L 205.789062 200.488281 L 208.839844 201.71875 L 211.828125 203.078125 L 219.851562 207.589844 L 222.488281 209.019531 L 225.179688 210.339844 L 232.261719 213.148438 L 233.160156 213.421875 L 234.078125 213.640625 L 235 213.828125 L 237.679688 214.140625 L 238.929688 214.25 L 241.921875 214.75 L 241.941406 214.75 L 243.171875 215.019531 L 244.378906 215.339844 L 245.578125 215.710938 L 246.761719 216.128906 L 247.929688 216.601562 L 250.390625 217.808594 L 257.78125 222.5 L 260.699219 224.878906 L 261.519531 225.609375 L 262.371094 226.320312 L 264.359375 227.730469 L 265.269531 228.351562 L 266.148438 229 L 267.878906 230.46875 L 269.949219 232.21875 L 270.160156 232.339844 L 270.378906 232.460938 L 270.601562 232.558594 L 270.828125 232.648438 L 271.058594 232.738281 L 271.289062 232.808594 L 271.53125 232.878906 L 271.769531 232.929688 L 272.011719 232.980469 L 272.25 233.011719 L 272.5 233.03125 L 272.738281 233.039062 L 272.738281 250.050781 L 264.238281 250.050781 L 263.988281 250.039062 L 263.75 250.019531 L 263.511719 249.980469 L 263.261719 249.941406 L 263.019531 249.890625 L 262.789062 249.820312 L 262.550781 249.75 L 262.320312 249.660156 L 262.101562 249.570312 L 261.871094 249.460938 L 261.660156 249.351562 L 261.441406 249.230469 L 259.371094 247.480469 L 257.648438 246.011719 L 256.761719 245.351562 L 255.851562 244.738281 L 253.871094 243.320312 L 253.019531 242.621094 L 252.199219 241.878906 L 249.269531 239.511719 L 241.878906 234.820312 L 239.421875 233.609375 L 238.261719 233.140625 L 237.078125 232.71875 L 235.878906 232.339844 L 234.660156 232.03125 L 233.429688 231.761719 L 233.410156 231.761719 L 230.429688 231.261719 L 229.179688 231.140625 L 226.5 230.839844 L 225.570312 230.648438 L 224.660156 230.429688 L 223.75 230.160156 L 216.671875 227.351562 L 213.980469 226.03125 L 211.351562 224.601562 L 203.320312 220.089844 L 200.328125 218.730469 L 197.289062 217.488281 L 193.121094 215.730469 L 192.300781 215.351562 L 190.011719 214.511719 L 188.96875 214.21875 L 187.171875 213.671875 L 186.351562 213.371094 L 185.558594 213.03125 L 184.769531 212.648438 L 177.109375 207.640625 L 169.25 201.960938 L 166.148438 200.199219 L 164.828125 199.570312 L 163.480469 199 L 162.109375 198.488281 L 158.160156 196.839844 L 155.359375 195.648438 L 154.390625 195.339844 L 153.410156 195.070312 L 152.410156 194.839844 L 150.128906 194.628906 L 148.828125 194.558594 L 148.320312 194.5 L 147.820312 194.410156 L 147.320312 194.300781 L 143.371094 192.699219 L 141.980469 192 L 140.609375 191.230469 L 139.28125 190.410156 L 136.960938 189.058594 L 128.949219 183.769531 L 125.949219 181.441406 L 123.058594 178.96875 L 120.351562 176.738281 L 114.429688 171.558594 Z M 264.238281 250.050781 L 264.238281 233.039062 L 264.808594 233.03125 L 273.308594 233.03125 L 273.308594 250.039062 L 272.738281 250.050781 Z M 264.808594 233.03125 L 273.308594 233.03125 L 275.320312 233.230469 L 279.921875 234.171875 L 281.160156 234.410156 L 284.078125 234.769531 L 285.988281 234.960938 L 289.671875 235.230469 L 290.679688 235.25 L 291.679688 235.308594 L 292.679688 235.410156 L 293.679688 235.558594 L 294.671875 235.75 L 296.648438 236.269531 L 307.089844 239.558594 L 309.519531 240.269531 L 310.660156 240.558594 L 313.160156 241 L 314.179688 241.140625 L 315.191406 241.328125 L 317.308594 241.878906 L 317.96875 242.050781 L 318.648438 242.199219 L 319.328125 242.308594 L 320.011719 242.398438 L 320.699219 242.449219 L 322.449219 242.460938 L 322.449219 259.460938 L 312.191406 259.460938 L 311.511719 259.410156 L 310.820312 259.320312 L 310.140625 259.210938 L 309.46875 259.058594 L 308.800781 258.890625 L 306.691406 258.339844 L 305.679688 258.148438 L 304.660156 258.011719 L 302.148438 257.558594 L 301.019531 257.28125 L 298.578125 256.570312 L 288.148438 253.28125 L 286.160156 252.761719 L 285.179688 252.570312 L 284.179688 252.421875 L 283.179688 252.320312 L 282.179688 252.261719 L 281.171875 252.238281 L 277.480469 251.96875 L 275.578125 251.769531 L 272.648438 251.421875 L 271.410156 251.179688 L 266.820312 250.238281 L 264.808594 250.039062 Z M 313.949219 259.460938 L 313.949219 242.460938 L 314.910156 242.449219 L 323.410156 242.449219 L 323.410156 259.460938 Z M 314.910156 242.449219 L 323.410156 242.449219 L 326.261719 242.691406 L 338.988281 245.261719 L 340.421875 245.519531 L 341.511719 245.699219 L 344.039062 246.320312 L 345.398438 246.691406 L 348.300781 247.269531 L 352.148438 248.089844 L 353.429688 248.378906 L 354.730469 248.621094 L 357.921875 248.96875 L 360.371094 249.210938 L 362.078125 249.410156 L 369.28125 250.449219 L 370.898438 250.851562 L 374.988281 252.210938 L 376.019531 252.640625 L 377.070312 253.011719 L 378.140625 253.339844 L 379.210938 253.628906 L 380.300781 253.859375 L 381.398438 254.050781 L 383.808594 254.300781 L 384.058594 254.300781 L 384.058594 271.300781 L 375.300781 271.300781 L 372.898438 271.058594 L 371.800781 270.871094 L 370.710938 270.628906 L 369.628906 270.351562 L 368.570312 270.019531 L 367.519531 269.640625 L 366.488281 269.21875 L 362.398438 267.859375 L 360.769531 267.460938 L 353.578125 266.421875 L 351.859375 266.21875 L 349.421875 265.980469 L 346.21875 265.628906 L 344.929688 265.390625 L 343.648438 265.101562 L 339.800781 264.28125 L 336.890625 263.699219 L 335.53125 263.328125 L 333.011719 262.710938 L 331.910156 262.519531 L 330.480469 262.269531 L 317.761719 259.691406 L 314.910156 259.460938 Z M 375.550781 271.300781 L 375.550781 254.300781 L 376.46875 254.269531 L 384.980469 254.269531 L 384.980469 271.269531 L 384.058594 271.300781 Z M 376.46875 254.269531 L 385.898438 254.269531 L 386.820312 254.320312 L 387.738281 254.410156 L 388.648438 254.539062 L 391.089844 255.089844 L 391.871094 255.320312 L 392.660156 255.511719 L 393.460938 255.671875 L 394.269531 255.789062 L 396.160156 255.949219 L 396.160156 272.949219 L 387.648438 272.949219 L 385.761719 272.800781 L 384.960938 272.679688 L 384.160156 272.519531 L 383.371094 272.328125 L 382.578125 272.101562 L 380.148438 271.550781 L 379.238281 271.421875 L 378.320312 271.328125 L 377.398438 271.28125 L 376.46875 271.269531 Z M 387.648438 272.949219 L 387.648438 255.949219 L 392.960938 255.898438 L 396.359375 255.808594 L 404.871094 255.808594 L 404.871094 272.820312 L 401.460938 272.898438 L 396.160156 272.949219 Z M 396.359375 255.808594 L 425.980469 255.808594 L 425.980469 272.820312 L 396.359375 272.820312 Z M 417.480469 272.820312 L 417.480469 255.808594 L 426.660156 255.808594 L 426.660156 272.820312 Z M 417.480469 272.820312 "/>
<path style=" stroke:none;fill-rule:nonzero;fill:rgb(100%,98.799133%,0%);fill-opacity:0.50196;" d="M 416.660156 272.820312 L 416.660156 255.808594 L 418.558594 255.75 L 420.449219 255.601562 L 425.910156 254.710938 L 434.941406 252.300781 L 441.75 250.398438 L 445.039062 249.570312 L 457.140625 246.949219 L 466.300781 245.378906 L 473.089844 243.570312 L 476.269531 242.648438 L 483.339844 241.121094 L 484.789062 240.890625 L 486.21875 240.609375 L 487.640625 240.261719 L 489.039062 239.851562 L 490.421875 239.378906 L 491.78125 238.851562 L 493.121094 238.261719 L 495.75 236.890625 L 506.050781 231.460938 L 510.640625 229.460938 L 519.679688 225.289062 L 523.199219 223.339844 L 525.308594 222.121094 L 531.160156 219.351562 L 535.550781 218.078125 L 537.101562 217.699219 L 540.398438 216.640625 L 542.210938 215.898438 L 544.25 215.03125 L 546.328125 214.238281 L 548.441406 213.550781 L 553.429688 212.300781 L 554.648438 212.050781 L 557.128906 211.351562 L 560.070312 210.550781 L 562.460938 210.050781 L 564.859375 209.648438 L 567.289062 209.359375 L 572.660156 209.078125 L 573.691406 209.019531 L 574.71875 208.921875 L 575.738281 208.769531 L 578.660156 208.078125 L 581.019531 207.5 L 585.859375 206.558594 L 593.859375 204.859375 L 598.890625 203.648438 L 601.621094 203.050781 L 604.308594 202.328125 L 609.988281 200.390625 L 613.050781 198.839844 L 613.808594 198.390625 L 614.601562 197.96875 L 615.398438 197.589844 L 616.21875 197.25 L 618.289062 196.558594 L 623.351562 195.019531 L 628.648438 193.421875 L 636.058594 191.558594 L 638.058594 191.058594 L 643.300781 189.308594 L 648.820312 187.449219 L 650.371094 187.03125 L 657.410156 185.390625 L 659.121094 185.039062 L 663.691406 183.71875 L 667.550781 182.550781 L 678.878906 179.109375 L 685.671875 176.941406 L 687.621094 176.289062 L 688.488281 175.980469 L 689.359375 175.699219 L 691.910156 175.128906 L 703.449219 173.378906 L 713.769531 171.269531 L 714.519531 171.078125 L 715.269531 170.859375 L 716 170.601562 L 716.730469 170.320312 L 718.609375 169.390625 L 719.421875 168.96875 L 720.238281 168.578125 L 721.078125 168.230469 L 722.898438 167.609375 L 724.128906 167.300781 L 732.320312 165.570312 L 733.128906 165.398438 L 733.929688 165.199219 L 734.71875 164.960938 L 735.5 164.691406 L 736.269531 164.378906 L 738.21875 163.421875 L 739.320312 162.871094 L 742.011719 161.761719 L 743.140625 161.308594 L 743.621094 161.121094 L 752.121094 161.121094 L 752.121094 178.121094 L 751.640625 178.320312 L 750.511719 178.769531 L 747.820312 179.871094 L 746.71875 180.429688 L 744.769531 181.390625 L 744 181.699219 L 743.21875 181.96875 L 742.429688 182.210938 L 741.628906 182.410156 L 740.820312 182.578125 L 732.640625 184.308594 L 731.398438 184.621094 L 729.589844 185.230469 L 728.75 185.589844 L 727.921875 185.96875 L 727.109375 186.398438 L 725.230469 187.320312 L 724.511719 187.609375 L 723.769531 187.871094 L 723.03125 188.089844 L 722.269531 188.28125 L 711.949219 190.390625 L 700.421875 192.140625 L 697.871094 192.710938 L 696.988281 192.980469 L 696.128906 193.300781 L 694.171875 193.949219 L 687.378906 196.121094 L 676.058594 199.558594 L 672.191406 200.730469 L 667.628906 202.050781 L 665.921875 202.398438 L 658.871094 204.039062 L 657.328125 204.460938 L 651.800781 206.308594 L 646.558594 208.070312 L 644.558594 208.558594 L 637.148438 210.429688 L 631.859375 212.03125 L 626.800781 213.570312 L 624.730469 214.261719 L 623.910156 214.601562 L 623.101562 214.980469 L 622.320312 215.398438 L 621.550781 215.839844 L 618.488281 217.398438 L 612.820312 219.339844 L 610.121094 220.050781 L 607.398438 220.648438 L 602.371094 221.871094 L 594.359375 223.570312 L 589.53125 224.511719 L 587.171875 225.078125 L 584.25 225.769531 L 583.21875 225.921875 L 582.199219 226.03125 L 581.171875 226.089844 L 575.789062 226.359375 L 573.371094 226.660156 L 570.960938 227.058594 L 568.570312 227.558594 L 565.640625 228.359375 L 563.148438 229.050781 L 561.929688 229.308594 L 556.949219 230.558594 L 554.839844 231.25 L 552.761719 232.03125 L 550.71875 232.910156 L 548.898438 233.648438 L 545.601562 234.710938 L 544.050781 235.089844 L 539.671875 236.351562 L 533.808594 239.128906 L 531.699219 240.351562 L 528.179688 242.300781 L 519.140625 246.460938 L 514.550781 248.46875 L 504.25 253.890625 L 501.621094 255.269531 L 500.289062 255.859375 L 498.929688 256.390625 L 497.539062 256.859375 L 496.140625 257.269531 L 494.71875 257.609375 L 493.289062 257.898438 L 491.851562 258.121094 L 484.769531 259.660156 L 481.589844 260.578125 L 474.808594 262.390625 L 465.640625 263.949219 L 453.550781 266.570312 L 450.25 267.410156 L 443.441406 269.308594 L 434.421875 271.71875 L 428.949219 272.609375 L 427.058594 272.75 L 425.171875 272.820312 Z M 416.660156 272.820312 "/>
</g>
</svg>
