<?xml version="1.0" encoding="UTF-8" standalone="no"?>
<!DOCTYPE svg PUBLIC "-//W3C//DTD SVG 1.1//EN" "http://www.w3.org/Graphics/SVG/1.1/DTD/svg11.dtd">
<svg xmlns="http://www.w3.org/2000/svg" xmlns:xlink="http://www.w3.org/1999/xlink" version="1.1" width="198.59pt" height="165.84pt" viewBox="0 0 198.59 165.84">
<g enable-background="new">
<path transform="matrix(1,0,0,-1,46.295,152.29599)" stroke-width=".3985" stroke-linecap="butt" stroke-miterlimit="10" stroke-linejoin="miter" fill="none" stroke="#000000" d="M 7.67566 0 C 7.67566 4.23918 4.23918 7.67566 0 7.67566 C -4.23918 7.67566 -7.67566 4.23918 -7.67566 0 C -7.67566 -4.23918 -4.23918 -7.67566 0 -7.67566 C 4.23918 -7.67566 7.67566 -4.23918 7.67566 0 Z M 0 0 "/>
<text xml:space="preserve" transform="matrix(1 0 -0 1 70.037 74.175998)" font-size="9.9626" font-family="LMRoman10"><tspan y="80.297" x="-25.705">s</tspan></text>
<path transform="matrix(1,0,0,-1,46.295,152.29599)" stroke-width=".3985" stroke-linecap="butt" stroke-miterlimit="10" stroke-linejoin="miter" fill="none" stroke="#000000" d="M 8.283 113.38724 C 8.283 117.96185 4.57462 121.67024 0 121.67024 C -4.57462 121.67024 -8.283 117.96185 -8.283 113.38724 C -8.283 108.8126 -4.57462 105.10422 0 105.10422 C 4.57462 105.10422 8.283 108.8126 8.283 113.38724 Z M 0 113.38724 "/>
<text xml:space="preserve" transform="matrix(1 0 -0 1 70.062 -38.379007)" font-size="9.9626" font-family="LMRoman10"><tspan y="80.297" x="-25.705">t</tspan></text>
<path transform="matrix(1,0,0,-1,46.295,152.29599)" stroke-width=".3985" stroke-linecap="butt" stroke-miterlimit="10" stroke-linejoin="miter" fill="none" stroke="#000000" d="M 75.56332 113.38724 C 75.56332 115.98096 73.46074 118.08354 70.867 118.08354 C 68.27328 118.08354 66.1707 115.98096 66.1707 113.38724 C 66.1707 110.7935 68.27328 108.69092 70.867 108.69092 C 73.46074 108.69092 75.56332 110.7935 75.56332 113.38724 Z M 70.867 113.38724 "/>
<path transform="matrix(1,0,0,-1,46.295,152.29599)" stroke-width=".3985" stroke-linecap="butt" stroke-miterlimit="10" stroke-linejoin="miter" fill="none" stroke="#000000" d="M 146.43036 0 C 146.43036 2.59372 144.32778 4.6963 141.73404 4.6963 C 139.1403 4.6963 137.03772 2.59372 137.03772 0 C 137.03772 -2.59372 139.1403 -4.6963 141.73404 -4.6963 C 144.32778 -4.6963 146.43036 -2.59372 146.43036 0 Z M 141.73404 0 "/>
<path transform="matrix(1,0,0,-1,46.295,152.29599)" stroke-width=".3985" stroke-linecap="butt" stroke-miterlimit="10" stroke-linejoin="miter" fill="none" stroke="#000000" d="M 75.56332 0 C 75.56332 2.59372 73.46074 4.6963 70.867 4.6963 C 68.27328 4.6963 66.1707 2.59372 66.1707 0 C 66.1707 -2.59372 68.27328 -4.6963 70.867 -4.6963 C 73.46074 -4.6963 75.56332 -2.59372 75.56332 0 Z M 70.867 0 "/>
<path transform="matrix(1,0,0,-1,46.295,152.29599)" stroke-width=".3985" stroke-linecap="butt" stroke-miterlimit="10" stroke-linejoin="miter" fill="none" stroke="#000000" d="M 146.43036 113.38724 C 146.43036 115.98096 144.32778 118.08354 141.73404 118.08354 C 139.1403 118.08354 137.03772 115.98096 137.03772 113.38724 C 137.03772 110.7935 139.1403 108.69092 141.73404 108.69092 C 144.32778 108.69092 146.43036 110.7935 146.43036 113.38724 Z M 141.73404 113.38724 "/>
<path transform="matrix(1,0,0,-1,46.295,152.29599)" stroke-width=".3985" stroke-linecap="butt" stroke-miterlimit="10" stroke-linejoin="miter" fill="none" stroke="#ffffff" d="M 40.1298 141.73404 C 40.1298 144.32778 38.02722 146.43036 35.43349 146.43036 C 32.83977 146.43036 30.73718 144.32778 30.73718 141.73404 C 30.73718 139.1403 32.83977 137.03772 35.43349 137.03772 C 38.02722 137.03772 40.1298 139.1403 40.1298 141.73404 Z M 35.43349 141.73404 "/>
<path transform="matrix(1,0,0,-1,46.295,152.29599)" stroke-width=".3985" stroke-linecap="butt" stroke-miterlimit="10" stroke-linejoin="miter" fill="none" stroke="#ffffff" d="M -16.26695 56.69362 C -16.26695 63.36522 -21.6752 68.77347 -28.3468 68.77347 C -35.0184 68.77347 -40.42667 63.36522 -40.42667 56.69362 C -40.42667 50.02202 -35.0184 44.61375 -28.3468 44.61375 C -21.6752 44.61375 -16.26695 50.02202 -16.26695 56.69362 Z M -28.3468 56.69362 "/>
<text xml:space="preserve" transform="matrix(1 0 -0 1 36.734 18.313992)" font-size="9.9626" font-family="LMRoman10"><tspan y="80.297" x="-25.705 -21.281605 -15.742399">cut</tspan></text>
<path transform="matrix(1,0,0,-1,46.295,152.29599)" stroke-width=".79701" stroke-linecap="butt" stroke-miterlimit="10" stroke-linejoin="miter" fill="none" stroke="#000000" d="M 0 7.87491 C 0 45.71384 0 67.06604 0 104.90497 "/>
<path transform="matrix(1,0,0,-1,46.295,152.29599)" stroke-width=".79701" stroke-linecap="butt" stroke-miterlimit="10" stroke-linejoin="miter" fill="none" stroke="#000000" d="M 8.48225 113.38724 C 30.90138 113.38724 43.5523 113.38724 65.97144 113.38724 "/>
<path transform="matrix(1,0,0,-1,46.295,152.29599)" stroke-width=".79701" stroke-linecap="butt" stroke-miterlimit="10" stroke-linejoin="miter" fill="none" stroke="#000000" d="M 7.34572 109.14624 C 51.81764 84.2811 93.72456 84.85841 137.49442 110.93953 "/>
<path transform="matrix(1,0,0,-1,46.295,152.29599)" stroke-width=".79701" stroke-linecap="butt" stroke-miterlimit="10" stroke-linejoin="miter" fill="none" stroke="#000000" d="M 6.62312 108.08879 C 57.99367 66.99196 86.54094 44.15482 137.91147 3.058 "/>
<path transform="matrix(1,0,0,-1,46.295,152.29599)" stroke-width="1.19553" stroke-linecap="butt" stroke-miterlimit="10" stroke-linejoin="miter" fill="none" stroke="#ff0000" d="M 34.848 136.87374 C 32.00383 101.1955 15.265 76.89285 -17.0553 61.51674 "/>
</g>
</svg>
